<svg xmlns="http://www.w3.org/2000/svg" viewBox="0 0 313.59 302.76"><defs><style>.cls-1{opacity:0.66;}.cls-2{fill:#8cccf0;opacity:0.82;}.cls-3,.cls-5,.cls-6{fill:#f3f1e7;}.cls-10,.cls-12,.cls-3,.cls-4,.cls-5,.cls-9{stroke:#231f20;}.cls-10,.cls-11,.cls-12,.cls-13,.cls-3,.cls-4,.cls-5,.cls-6,.cls-9{stroke-miterlimit:10;}.cls-3,.cls-4{stroke-width:2px;}.cls-13,.cls-4,.cls-9{fill:none;}.cls-6{stroke:#ec008c;}.cls-10,.cls-7{fill:#231f20;}.cls-8{fill:#414042;opacity:0.63;}.cls-11{fill:#f1c4dc;stroke:#a7a9ac;}.cls-12{fill:#fbcccc;}.cls-13{stroke:#bcbec0;opacity:0.81;}.cls-14{fill:#fff;}.cls-15,.cls-16{fill:#d1d3d4;}.cls-15{opacity:0.15;}</style></defs><title>Untitled-1</title><g id="Layer_1" data-name="Layer 1"><g class="cls-1"><path class="cls-2" d="M428.94,153.34l.12-.11H282.59c-8.87,0-16.07,7-16.07,15.52V303.16C266.52,387,336.43,456,423.23,456c86.63,0,156.88-67.75,156.88-151.38C580.11,222.83,512.93,156.2,428.94,153.34Z" transform="translate(-266.52 -153.23)"/></g><path class="cls-3" d="M528.72,293.44s-10.64,8.19-19.63,9.88c2.14,14.36,2.46,29-1.33,40.83,0,0-26.36,58.9-73.69,67,0,0-77.07,1.31-96.67-56.16a155.18,155.18,0,0,1-1.16-54c-10.66,2-21.15-2.06-21.15-2.06s-24.34-13.52-14.88-30.42c0,0,24.34-33.13,48-31.1,0,0,81.13-54.08,143.33,0,0,0,23-10.14,50,22.31C541.57,259.64,550.35,275.19,528.72,293.44Z" transform="translate(-266.52 -153.23)"/><path class="cls-4" d="M509.09,303.32c-2.93.55-5.68.42-7.84-.91-8.79-5.41-9.8-26.63-9.8-26.63" transform="translate(-266.52 -153.23)"/><path class="cls-4" d="M356.24,275.78c-4.06,15.3-8.12,19.47-8.12,19.47a24.4,24.4,0,0,1-11.88,5.66" transform="translate(-266.52 -153.23)"/><path class="cls-5" d="M425.26,333.44" transform="translate(-266.52 -153.23)"/><path class="cls-5" d="M431.8,333.29" transform="translate(-266.52 -153.23)"/><path class="cls-6" d="M425.26,333.44" transform="translate(-266.52 -153.23)"/><path class="cls-5" d="M431.8,333.29" transform="translate(-266.52 -153.23)"/><path class="cls-6" d="M431.8,333.29" transform="translate(-266.52 -153.23)"/><path class="cls-7" d="M411.77,321a67.8,67.8,0,0,0,12.32,7.32,11.42,11.42,0,0,0,10.68-.7c2.85-1.82,7-4.36,10.25-9.12,4.81-7.06-.6-10.31-.6-10.31-12.84-11.49-27.68-3.59-32.26.08a9.35,9.35,0,0,0-3.31,4.89,6.94,6.94,0,0,0,1.3,6.31A8.72,8.72,0,0,0,411.77,321Z" transform="translate(-266.52 -153.23)"/><circle class="cls-7" cx="199.43" cy="141.38" r="9.53"/><path class="cls-8" d="M421.55,326.74" transform="translate(-266.52 -153.23)"/><path class="cls-8" d="M411.67,320.2" transform="translate(-266.52 -153.23)"/><path class="cls-9" d="M473.78,346.31" transform="translate(-266.52 -153.23)"/><path class="cls-9" d="M451.48,363.16" transform="translate(-266.52 -153.23)"/><path class="cls-9" d="M403.77,364.64" transform="translate(-266.52 -153.23)"/><path class="cls-9" d="M377.19,345.51" transform="translate(-266.52 -153.23)"/><path class="cls-5" d="M403.77,364.64" transform="translate(-266.52 -153.23)"/><path class="cls-5" d="M377.19,346.23" transform="translate(-266.52 -153.23)"/><path class="cls-10" d="M408.59,382.56" transform="translate(-266.52 -153.23)"/><path class="cls-11" d="M429.81,367.57a37.32,37.32,0,0,0,0-22.06" transform="translate(-266.52 -153.23)"/><path class="cls-10" d="M383.7,348.27s41.83,52.86,87.53-1.41l-11,1.9s-14.64-1-31-18.8C429.27,330,411.52,351,383.7,348.27Z" transform="translate(-266.52 -153.23)"/><path class="cls-12" d="M411.78,342.75c-.24.08,0,.56,0,.81-.44,3.88-3,34,18,32.67,0,0,20.92,2.28,16.87-32.67,0-.22-1-.89-1.16-1-1.84-.87-11.56-6.45-16.25-12.62-.23-.31,0,.07-.3.35C427,332.29,420.48,340,411.78,342.75Z" transform="translate(-266.52 -153.23)"/><path class="cls-9" d="M365.54,334.94c2,7.36,16,12.41,16,12.41,7.87,2.73,29.45-.29,44.09-13.8l3.66-3.59c.05.12,19.88,20.1,34.63,17.91,15.83-2.36,19.39-9.71,22.07-15.71" transform="translate(-266.52 -153.23)"/><path class="cls-13" d="M429.17,355.92s2.9,9.24-.72,17.44" transform="translate(-266.52 -153.23)"/><circle class="cls-14" cx="202.65" cy="139.21" r="3.22"/><circle class="cls-7" cx="120.2" cy="144.45" r="9.53"/><circle class="cls-14" cx="123.42" cy="142.28" r="3.22"/><path class="cls-15" d="M446.17,316.38s-11.6,2.84-10.53,10.67C435.64,327.05,442.9,322.93,446.17,316.38Z" transform="translate(-266.52 -153.23)"/><path class="cls-16" d="M451.08,325.82" transform="translate(-266.52 -153.23)"/><path class="cls-16" d="M437.7,324.8" transform="translate(-266.52 -153.23)"/><path class="cls-15" d="M411.27,320.55s9.9-.63,10.28,6.5C421.55,327.05,414.25,323.54,411.27,320.55Z" transform="translate(-266.52 -153.23)"/></g></svg>