<svg xmlns="http://www.w3.org/2000/svg" viewBox="0 0 247.3 199.83"><defs><style>.cls-1{fill:#f3f1e7;}.cls-1,.cls-2,.cls-3,.cls-4,.cls-8,.cls-9{stroke:#231f20;}.cls-1,.cls-2,.cls-3,.cls-4,.cls-6,.cls-8,.cls-9{stroke-miterlimit:10;}.cls-1,.cls-2,.cls-4,.cls-9{stroke-width:2px;}.cls-2,.cls-3,.cls-7{fill:#231f20;}.cls-4{fill:#bab8af;}.cls-5{fill:#fff;}.cls-6,.cls-9{fill:none;}.cls-6{stroke:#bcbec0;opacity:0.81;}.cls-8{fill:#fbcccc;}.cls-9{stroke-linecap:round;}</style></defs><title>Asset 2</title><g id="Layer_2" data-name="Layer 2"><g id="Layer_1-2" data-name="Layer 1"><path class="cls-1" d="M51.19,25S132.31-29,194.51,25c0,0,23-10.14,50,22.31,0,0,8.79,15.55-12.85,33.8,0,0-1.35-41.92-35.83-47.32,0,0,26.37,62.19,14.88,98,0,0-26.37,58.9-73.7,67,0,0-77.07,1.31-96.67-56.16,0,0-6.55-28.26-.3-58.74,3.18-15.46,9.64-31.5,21.93-44.7,0,0-35.8,6.26-42.8,38a51.54,51.54,0,0,0-1.14,9.3S-6.28,73,3.19,56.14C3.19,56.14,27.52,23,51.19,25Z"/><path class="cls-2" d="M174.31,56s13.89,12.09,10.15,23.39c0,0-8.06,13.87-18.07-1.09,0,0-9.25-13.41-5.22-20.12C161.17,58.18,166.54,51.32,174.31,56Z"/><path class="cls-2" d="M82.21,58.47s-15.12,11.59-11,22.42c0,0,8.78,13.31,19.67-1,0,0,10.08-12.86,5.69-19.29A11.76,11.76,0,0,0,82.21,58.47Z"/><path class="cls-3" d="M149,98.06c4.43-5.88,0-8.85,0-8.85-14.69-13.76-28.16,1-28.16,1s-3.81,5.15.38,9.53C121.21,99.76,136.09,115.2,149,98.06Z"/><path class="cls-4" d="M39,86.51s-2.78-11.23-18.5-8.36c0,0,.42-31,41.53-38.92C62,39.23,41.21,61,39,86.51Z"/><path class="cls-4" d="M210.35,74.93s6.44-8.4,20.33-2.68c0,0-.89-30.61-34.82-38.42C195.86,33.83,200.72,45,210.35,74.93Z"/><ellipse class="cls-5" cx="90.43" cy="66.79" rx="3.19" ry="2.78"/><ellipse class="cls-5" cx="166.57" cy="64.01" rx="3.19" ry="2.78"/><path class="cls-6" d="M133.38,126.84s7.3,11.84,6.06,25.08"/><path class="cls-5" d="M72.28,76.57v0a6.71,6.71,0,0,1,6.39,6.73l.38,0h0a6.49,6.49,0,0,1,.27-1.89,6.74,6.74,0,0,1,6.49-4.87h0a6.48,6.48,0,0,1-1.88-.27,6.76,6.76,0,0,1-4.88-6.49h0A6.77,6.77,0,0,1,72.28,76.57Z"/><path class="cls-5" d="M170.9,74.93h0a6.76,6.76,0,0,1,6.39,6.74l.38,0h0a6.49,6.49,0,0,1,.27-1.89,6.76,6.76,0,0,1,6.49-4.88h0a6.77,6.77,0,0,1-6.76-6.77h0A6.77,6.77,0,0,1,170.9,74.93Z"/><path class="cls-7" d="M81.93,119.86s50.56,82.18,98.33,2.2c0,0-24.26,8.24-44.41-10.4C135.85,111.66,111.36,136.21,81.93,119.86Z"/><path class="cls-8" d="M102.54,125.6s7,33,28.56,40.31c0,0,18.48,7.36,26.1-14.19,0,0,3.09-16.39-1.11-29.24,0,0-17.48-7.1-20.24-10.82C135.85,111.66,119.2,127.72,102.54,125.6Z"/><path class="cls-9" d="M70.46,110.43a35.15,35.15,0,0,0,17.79,12.36c8.53,3,28.64,7,47.6-11.13,0,0,20,18.17,47.73,9.38,0,0,10.8-4,13.34-11.24"/><path class="cls-6" d="M134.24,126.84s6.22,11.65,3.45,23.56"/></g></g></svg>