<svg xmlns="http://www.w3.org/2000/svg" viewBox="0 0 247.31 199.83"><defs><style>.cls-1{fill:#f3f1e7;}.cls-1,.cls-2,.cls-5,.cls-6,.cls-7{stroke:#231f20;}.cls-1,.cls-2,.cls-4,.cls-5,.cls-6,.cls-7,.cls-8{stroke-miterlimit:10;}.cls-1,.cls-2{stroke-width:2px;}.cls-2,.cls-7,.cls-8{fill:none;}.cls-3,.cls-5{fill:#231f20;}.cls-4{fill:#f1c4dc;stroke:#a7a9ac;}.cls-6{fill:#fbcccc;}.cls-8{stroke:#bcbec0;opacity:0.81;}.cls-9{fill:#fff;}.cls-10{fill:#d1d3d4;opacity:0.15;}</style></defs><title>Asset 1</title><g id="Layer_2" data-name="Layer 2"><g id="Layer_1-2" data-name="Layer 1"><path class="cls-1" d="M231.69,81.15S221.05,89.34,212.06,91c2.14,14.36,2.46,29-1.33,40.83,0,0-26.36,58.9-73.69,67,0,0-77.07,1.31-96.67-56.16a155.18,155.18,0,0,1-1.16-54c-10.66,2-21.15-2.06-21.15-2.06S-6.28,73,3.18,56.14c0,0,24.34-33.13,48-31.1,0,0,81.13-54.08,143.33,0,0,0,23-10.14,50,22.31C244.54,47.35,253.32,62.9,231.69,81.15Z"/><path class="cls-2" d="M212.06,91c-2.93.55-5.68.42-7.84-.91-8.79-5.41-9.8-26.63-9.8-26.63"/><path class="cls-2" d="M59.21,63.49C55.15,78.79,51.09,83,51.09,83a24.4,24.4,0,0,1-11.88,5.66"/><path class="cls-3" d="M114.74,108.65A66.64,66.64,0,0,0,127.06,116a11.39,11.39,0,0,0,10.68-.7c2.85-1.81,7-4.35,10.25-9.12,4.81-7.05-.6-10.3-.6-10.3-12.84-11.5-27.68-3.6-32.26.07a9.34,9.34,0,0,0-3.31,4.9,6.94,6.94,0,0,0,1.3,6.31A8.67,8.67,0,0,0,114.74,108.65Z"/><circle class="cls-3" cx="168.92" cy="82.32" r="9.53"/><path class="cls-4" d="M132.78,155.28a37.32,37.32,0,0,0,0-22.06"/><path class="cls-5" d="M86.67,136s41.83,52.86,87.53-1.41l-11,1.91s-14.64-1-31-18.8C132.25,117.67,114.49,138.69,86.67,136Z"/><path class="cls-6" d="M114.75,130.46c-.24.07,0,.56,0,.81-.44,3.87-3,34,18,32.66,0,0,20.92,2.28,16.87-32.67,0-.22-1-.88-1.16-1-1.84-.86-11.56-6.45-16.24-12.61-.24-.32,0,.06-.31.34C130,120,123.45,127.7,114.75,130.46Z"/><path class="cls-7" d="M68.52,122.65c2,7.35,16,12.4,16,12.4,7.87,2.74,29.45-.28,44.09-13.79l3.67-3.59c0,.11,19.87,20.1,34.62,17.9,15.83-2.35,19.39-9.7,22.07-15.71"/><path class="cls-8" d="M132.14,143.63s2.9,9.23-.72,17.44"/><circle class="cls-9" cx="172.14" cy="80.15" r="3.22"/><circle class="cls-3" cx="89.69" cy="85.39" r="9.53"/><circle class="cls-9" cx="92.91" cy="83.22" r="3.22"/><path class="cls-10" d="M149.14,104.09s-11.6,2.83-10.52,10.66C138.62,114.75,145.87,110.64,149.14,104.09Z"/><path class="cls-10" d="M114.24,108.26s9.9-.64,10.28,6.49C124.52,114.75,117.22,111.25,114.24,108.26Z"/></g></g></svg>